<?xml version="1.0" encoding="iso-8859-1"?>
<!-- Generator: Adobe Illustrator 16.0.0, SVG Export Plug-In . SVG Version: 6.00 Build 0)  -->
<!DOCTYPE svg PUBLIC "-//W3C//DTD SVG 1.1//EN" "http://www.w3.org/Graphics/SVG/1.1/DTD/svg11.dtd">
<svg xmlns="http://www.w3.org/2000/svg" xmlns:xlink="http://www.w3.org/1999/xlink" version="1.1" id="Capa_1" x="0px" y="0px" width="512px" height="512px" viewBox="0 0 473.497 473.497" style="enable-background:new 0 0 473.497 473.497;" xml:space="preserve">
<g>
	<g>
		<path d="M473.486,236.746c0-1.483-1.207-2.688-2.688-2.688h-21.256l23.356-28.979c0.639-0.805,0.787-1.913,0.34-2.848    c-0.446-0.934-1.401-1.528-2.425-1.528H370.009c-0.808,0-1.579,0.365-2.099,1.001l-26.075,32.354H55.549v-21.26    c0-0.021-0.011-0.037-0.011-0.057c-0.005-0.179-0.065-0.352-0.107-0.522c-0.042-0.179-0.061-0.359-0.134-0.523    c-0.011-0.016-0.006-0.036-0.017-0.052c-0.06-0.124-0.163-0.205-0.23-0.313c-0.116-0.165-0.21-0.339-0.357-0.478    c-0.139-0.129-0.299-0.216-0.462-0.312c-0.134-0.082-0.247-0.179-0.396-0.236c-0.21-0.082-0.436-0.108-0.662-0.134    c-0.108-0.018-0.204-0.066-0.317-0.066c-0.016,0-0.032,0.01-0.051,0.01c-0.186,0.005-0.37,0.071-0.559,0.113    c-0.166,0.039-0.338,0.056-0.493,0.124c-0.021,0.01-0.038,0.005-0.058,0.016L1.527,234.315c-0.126,0.061-0.21,0.168-0.322,0.241    c-0.006,0.006-0.011,0.006-0.016,0.012c-0.12,0.086-0.244,0.136-0.351,0.239c-0.038,0.037-0.063,0.068-0.1,0.103    c-0.113,0.134-0.189,0.288-0.287,0.44l0,0c-0.065,0.1-0.155,0.166-0.204,0.283c-0.01,0.006-0.01,0.021-0.016,0.032    c-0.016,0.04-0.021,0.081-0.037,0.113c-0.065,0.167-0.081,0.343-0.107,0.532c-0.022,0.139-0.077,0.268-0.082,0.409    c0,0.011-0.005,0.021-0.005,0.037c0,0.022,0.01,0.038,0.01,0.061c0.005,0.149,0.055,0.288,0.087,0.438    c0.031,0.169,0.042,0.336,0.102,0.502c0.022,0.031,0.032,0.081,0.048,0.113c0.01,0.016,0.005,0.037,0.016,0.052    c0.021,0.045,0.071,0.061,0.092,0.11c0.031,0.068,0.081,0.11,0.118,0.175c0.091,0.14,0.162,0.297,0.28,0.418    c0.113,0.115,0.257,0.188,0.391,0.283c0.087,0.073,0.163,0.131,0.257,0.189c0.066,0.031,0.103,0.089,0.174,0.12l0.065,0.026l0,0    l50.098,22.845c0.01,0,0.021,0,0.031,0c0.333,0.147,0.698,0.232,1.087,0.232c0.472,0,0.897-0.147,1.283-0.368    c0.103-0.052,0.185-0.111,0.275-0.174c0.339-0.257,0.623-0.562,0.817-0.938c0.016-0.033,0.055-0.054,0.071-0.085    c0.005-0.011,0.005-0.031,0.01-0.042c0.068-0.147,0.081-0.335,0.118-0.504c0.037-0.179,0.107-0.357,0.107-0.534    c0-0.011,0.006-0.037,0.006-0.048v-20.195H341.84l26.08,32.357c0.515,0.631,1.281,1.003,2.094,1.003h100.789    c1.034,0,1.979-0.582,2.426-1.522c0.446-0.935,0.319-2.036-0.33-2.84l-23.356-28.998h21.261    C472.279,239.434,473.486,238.225,473.486,236.746z M371.29,206.074h93.892l-22.541,27.984h-9.705l3.999-4    c1.045-1.042,1.045-2.75,0-3.8c-1.049-1.047-2.755-1.047-3.8,0l-6.427,6.425l-6.419-6.425c-1.039-1.047-2.756-1.047-3.8,0    c-1.041,1.05-1.041,2.758,0,3.8l3.999,4h-14.436l3.999-4c1.051-1.042,1.051-2.75,0-3.8c-1.049-1.047-2.75-1.047-3.8,0    l-6.425,6.425l-6.425-6.425c-1.035-1.047-2.752-1.047-3.802,0c-1.033,1.05-1.033,2.758,0,3.8l4,4h-14.43l3.994-4    c1.05-1.042,1.05-2.75,0-3.8c-1.044-1.047-2.75-1.047-3.796,0l-6.425,6.425l-6.42-6.425c-1.039-1.047-2.756-1.047-3.8,0    c-1.04,1.05-1.04,2.758,0,3.8l4,4h-17.989L371.29,206.074z M371.29,267.413l-22.539-27.979h17.454l-3.47,3.475    c-1.051,1.041-1.051,2.758,0,3.802c0.524,0.53,1.213,0.782,1.898,0.782c0.688,0,1.377-0.263,1.901-0.782l6.425-6.42l6.425,6.42    c0.526,0.53,1.218,0.782,1.9,0.782c0.693,0,1.376-0.263,1.906-0.782c1.044-1.044,1.044-2.761,0-3.802l-3.47-3.475h13.364    l-3.475,3.475c-1.034,1.041-1.034,2.758,0,3.802c0.54,0.53,1.229,0.782,1.906,0.782c0.677,0,1.376-0.263,1.905-0.782l6.409-6.42    l6.425,6.42c0.525,0.53,1.213,0.782,1.906,0.782c0.683,0,1.375-0.263,1.899-0.782c1.04-1.044,1.04-2.761,0-3.802l-3.465-3.475    h13.371l-3.47,3.475c-1.051,1.041-1.051,2.758,0,3.802c0.525,0.53,1.213,0.782,1.899,0.782c0.688,0,1.376-0.263,1.9-0.782    l6.425-6.42l6.427,6.42c0.525,0.53,1.218,0.782,1.899,0.782c0.693,0,1.376-0.263,1.906-0.782c1.044-1.044,1.044-2.761,0-3.802    l-3.47-3.475h9.165l22.546,27.984H371.29V267.413z" fill="#999999"/>
	</g>
</g>
<g>
</g>
<g>
</g>
<g>
</g>
<g>
</g>
<g>
</g>
<g>
</g>
<g>
</g>
<g>
</g>
<g>
</g>
<g>
</g>
<g>
</g>
<g>
</g>
<g>
</g>
<g>
</g>
<g>
</g>
</svg>
